<svg xmlns="http://www.w3.org/2000/svg" width="26.158" height="26.158" viewBox="0 0 26.158 26.158"><g transform="translate(0 -16)"><g transform="translate(0 16)"><path d="M24.957,23.757H21.483V8.156a.383.383,0,1,0-.766,0v.882H5.441V5.262H9.886V5.74a.588.588,0,0,0,.588.588h1.2v1.2a.588.588,0,0,0,.588.588H13.9a.588.588,0,0,0,.588-.588v-1.2h1.2a.588.588,0,0,0,.588-.588V5.262h4.445V6.517a.383.383,0,1,0,.766,0V4.879A.383.383,0,0,0,21.1,4.5H18.367V.383A.383.383,0,0,0,17.984,0h-6.6a.383.383,0,0,0,0,.766H17.6V4.5H16.272V4.1a.588.588,0,0,0-.588-.588h-1.2v-1.2a.588.588,0,0,0-.588-.588H12.262a.588.588,0,0,0-.588.588v1.2h-1.2a.588.588,0,0,0-.588.588V4.5H8.558V.766H9.8A.383.383,0,1,0,9.8,0H8.174a.383.383,0,0,0-.383.383V4.5H5.058a.383.383,0,0,0-.383.383V23.757H1.2a1.2,1.2,0,1,0,0,2.4H4.879a.383.383,0,1,0,0-.766H1.2a.434.434,0,1,1,0-.869H24.957a.434.434,0,0,1,0,.869H6.552a.383.383,0,1,0,0,.766H24.957a1.2,1.2,0,1,0,0-2.4ZM10.652,4.284h1.2A.588.588,0,0,0,12.44,3.7V2.5h1.277V3.7a.588.588,0,0,0,.588.588h1.2V5.561h-1.2a.588.588,0,0,0-.588.588v1.2H12.44v-1.2a.588.588,0,0,0-.588-.588h-1.2ZM20.71,9.8v.766H5.441V9.8ZM8.813,23.757v-2.3h.971v2.3Zm6.795-2.3v2.3H10.55v-2.3Zm.766,2.3v-2.3h.971v2.3Zm1.737,0V21.075a.383.383,0,0,0-.383-.383H8.43a.383.383,0,0,0-.383.383v2.682H5.441V11.337H20.717v12.42Z" transform="translate(0 0)"/><path d="M131.642,234.5h-2.759a.383.383,0,0,0-.383.383v2.554a.383.383,0,0,0,.383.383h2.759a.383.383,0,0,0,.383-.383v-2.554A.383.383,0,0,0,131.642,234.5Zm-.383,2.554h-1.993v-1.788h1.993Z" transform="translate(-121.935 -222.519)"/><path d="M317.642,234.5h-2.759a.383.383,0,0,0-.383.383v2.554a.383.383,0,0,0,.383.383h2.759a.383.383,0,0,0,.383-.383v-2.554A.383.383,0,0,0,317.642,234.5Zm-.383,2.554h-1.992v-1.788h1.992Z" transform="translate(-298.432 -222.519)"/><path d="M224.642,234.5h-2.759a.383.383,0,0,0-.383.383v2.554a.383.383,0,0,0,.383.383h2.759a.383.383,0,0,0,.383-.383v-2.554A.383.383,0,0,0,224.642,234.5Zm-.383,2.554h-1.992v-1.788h1.992Z" transform="translate(-210.184 -222.519)"/><path d="M131.642,321.5h-2.759a.383.383,0,0,0-.383.383v2.555a.383.383,0,0,0,.383.383h2.759a.383.383,0,0,0,.383-.383v-2.555A.383.383,0,0,0,131.642,321.5Zm-.383,2.555h-1.993v-1.788h1.993Z" transform="translate(-121.935 -305.075)"/><path d="M317.642,321.5h-2.759a.383.383,0,0,0-.383.383v2.555a.383.383,0,0,0,.383.383h2.759a.383.383,0,0,0,.383-.383v-2.555A.383.383,0,0,0,317.642,321.5Zm-.383,2.555h-1.992v-1.788h1.992Z" transform="translate(-298.432 -305.075)"/><path d="M224.642,321.5h-2.759a.383.383,0,0,0-.383.383v2.555a.383.383,0,0,0,.383.383h2.759a.383.383,0,0,0,.383-.383v-2.555A.383.383,0,0,0,224.642,321.5Zm-.383,2.555h-1.992v-1.788h1.992Z" transform="translate(-210.184 -305.075)"/></g></g></svg>