<svg xmlns="http://www.w3.org/2000/svg" width="20.396" height="20.396" viewBox="0 0 20.396 20.396"><defs><style>.a{fill:#5032d5;}</style></defs><path class="a" d="M12.2,8.49A3.708,3.708,0,1,0,15.906,12.2,3.707,3.707,0,0,0,12.2,8.49Zm8.288,2.781A8.339,8.339,0,0,0,13.125,3.91V2H11.271V3.91A8.339,8.339,0,0,0,3.91,11.271H2v1.854H3.91a8.339,8.339,0,0,0,7.361,7.361V22.4h1.854v-1.91a8.339,8.339,0,0,0,7.361-7.361H22.4V11.271h-1.91ZM12.2,18.688a6.49,6.49,0,1,1,6.49-6.49A6.491,6.491,0,0,1,12.2,18.688Z" transform="translate(-2 -2)"/></svg>