<svg xmlns="http://www.w3.org/2000/svg" width="101" height="66.393" viewBox="0 0 101 66.393"><defs><style>.a{font-size:18px;font-family:Helvetica;}</style></defs><text class="a" transform="translate(0 62.393)"><tspan x="0" y="0">View Gallery</tspan></text><g transform="translate(33)"><path d="M331.976,131.063a3.634,3.634,0,1,0,3.634,3.634A3.638,3.638,0,0,0,331.976,131.063Zm0,5.858A2.224,2.224,0,1,1,334.2,134.7,2.226,2.226,0,0,1,331.976,136.921Z" transform="translate(-305.189 -122.177)"/><path d="M362.356,445.441a.7.7,0,0,0-.065-.122.685.685,0,0,0-.195-.195.693.693,0,0,0-.122-.065.663.663,0,0,0-.132-.04.7.7,0,0,0-.275,0,.664.664,0,0,0-.132.04.692.692,0,0,0-.122.065.684.684,0,0,0-.195.195.7.7,0,0,0-.065.122.661.661,0,0,0-.04.132.678.678,0,0,0,0,.275.662.662,0,0,0,.04.132.7.7,0,0,0,.065.122.672.672,0,0,0,.087.107c.016.016.033.032.051.046a.647.647,0,0,0,.056.041.7.7,0,0,0,.122.065.66.66,0,0,0,.132.04.678.678,0,0,0,.275,0,.659.659,0,0,0,.132-.04.7.7,0,0,0,.122-.065.659.659,0,0,0,.056-.041.692.692,0,0,0,.138-.153.7.7,0,0,0,.065-.122.718.718,0,0,0,.041-.132.712.712,0,0,0,0-.275A.714.714,0,0,0,362.356,445.441Z" transform="translate(-335.544 -413.982)"/><path d="M204.976,49.711a.748.748,0,0,0-.065-.122.706.706,0,0,0-.087-.107.677.677,0,0,0-.107-.087.7.7,0,0,0-.122-.065.712.712,0,0,0-.132-.04.694.694,0,0,0-.275,0,.735.735,0,0,0-.133.04.716.716,0,0,0-.121.065.677.677,0,0,0-.107.087.758.758,0,0,0-.088.107.747.747,0,0,0-.064.122.661.661,0,0,0-.04.132.681.681,0,0,0,0,.276.661.661,0,0,0,.04.132.747.747,0,0,0,.064.122.758.758,0,0,0,.088.107.676.676,0,0,0,.107.087.716.716,0,0,0,.121.065.735.735,0,0,0,.133.04.677.677,0,0,0,.275,0,.712.712,0,0,0,.132-.04.7.7,0,0,0,.122-.065.676.676,0,0,0,.107-.087.706.706,0,0,0,.087-.107.748.748,0,0,0,.065-.122.665.665,0,0,0,.04-.132.681.681,0,0,0,0-.276A.665.665,0,0,0,204.976,49.711Z" transform="translate(-189.262 -46.157)"/><path d="M32.164,8.166a4.062,4.062,0,0,0-3.946-3.122H6.094A6.1,6.1,0,0,0,0,11.138V33.262a4.059,4.059,0,0,0,3.94,4.052,4.062,4.062,0,0,0,3.946,3.122H32.048A4.06,4.06,0,0,0,36.1,36.381V12.218A4.059,4.059,0,0,0,32.164,8.166Zm2.53,28.215a2.648,2.648,0,0,1-2.645,2.645H7.886a2.647,2.647,0,0,1-2.645-2.645V32.64l8.09-13.717a1.329,1.329,0,0,1,2.312.04l3.483,6.4,5.063,9.3a.705.705,0,0,0,1.239-.675l-1.643-3.017a2.909,2.909,0,0,0,2-.669l3.171-2.631a1.334,1.334,0,0,1,1.747.043l.166.152,1.41,1.293,2.42,2.218Zm0-6.924-2.42-2.218-1.41-1.074a2.752,2.752,0,0,0-2.813.414L24.88,29.21a1.51,1.51,0,0,1-2.291-.44l-2.225-4.085L19.122,22.4h0l-2.241-4.115a2.739,2.739,0,0,0-4.765-.081L5.24,29.864V12.218A2.648,2.648,0,0,1,7.885,9.573h4.357a.705.705,0,1,0,0-1.41H7.885A4.06,4.06,0,0,0,3.83,12.218V35.9a2.648,2.648,0,0,1-2.42-2.635V11.138A4.689,4.689,0,0,1,6.094,6.454H28.218a2.649,2.649,0,0,1,2.473,1.709H17.884a.705.705,0,0,0,0,1.41H30.863l1.41.01a2.648,2.648,0,0,1,2.42,2.635Z" transform="translate(0 -5.044)"/></g></svg>